<svg xmlns="http://www.w3.org/2000/svg" width="1094.612" height="1094.577" viewBox="0 0 1094.612 1094.577">
  <defs>
    <style>
      .cls-1 {
        fill: #7edb8b;
        opacity: 0.6;
      }
    </style>
  </defs>
  <path id="Shape_10_copy" data-name="Shape 10 copy" class="cls-1" d="M1639.433,6129.076c-302.315-.3-547.2-245.25-547.154-547.3.043-302.146,244.854-547.008,547.163-547.274,302.13-.266,548.323,245.982,547.446,547.567-.882,302.664-245.245,546.984-546.895,547.01Zm-59.51-96.767c12.109,1.606,20.708,10.434,21.48,22.863.249,4,2.064,4.639,5.205,4.7,15.332.294,30.664.826,46,.848,8.314.011,16.632-.829,24.792-1.276,1.606-16.114,8.313-25.02,20.948-26.74a30.417,30.417,0,0,1,14.626,2.155c7.731,3.066,11.772,9.893,13.772,18.143a458.744,458.744,0,0,0,73.1-19.668c-2.927-15.419,1.729-26.225,13.068-31.372,11.737-5.329,22.351-1.489,33.853,13.023,21.542-12.5,43.255-25.091,64.84-37.609-7.021-15.291-5.433-26.524,4.021-34.459,9.726-8.167,20.713-7.337,36.246,3.479l52.9-53.03c-10.643-12.351-12.482-24.168-5.087-33.788a32.6,32.6,0,0,1,12.191-9.271c7.627-3.424,15.3-1.193,23.429,3.38l37.552-64.958c-14.358-12.04-17.864-20.879-13.535-32.379,4.473-11.886,12.637-15.781,32.2-15.115,8.193-23.644,14.99-47.76,19.145-72.5-14.643-5.3-21.728-14.582-20.644-26.448,1.208-13.234,9.528-20.453,27.643-23.16V5544.14c-17.373-2.357-25.625-9.137-27.546-21.927-1.8-11.988,4.708-21.046,21.45-28.5l-19.344-72.239c-17.43,2.761-27.894-1.986-32.788-13.884-4.881-11.866-.815-22.483,13.418-32.8-12.511-21.611-25.1-43.352-37.6-64.948-15.707,6.7-26.366,5.684-33.86-3.65a32.166,32.166,0,0,1-5.95-13.521c-1.712-8.674,2.389-15.88,9.2-22.748-18.125-18.08-35.816-35.722-53.4-53.26-13.092,10.734-24.794,12.045-34.736,4.7-10.346-7.643-12.281-18.97-5.282-35.468l-64.863-37.466c-10.731,13.947-20.107,18.156-31.405,13.856-14.946-5.69-18.795-17.41-15.366-33.314-24.452-6.514-48.523-12.929-72.391-19.288-6.964,16.375-15.944,23.049-27.8,21.593-12.911-1.588-19.411-9.274-22.6-27.6H1601.9c-2.137,17.083-8.751,25.274-21.423,27.483-11.988,2.09-20.913-4.187-28.593-20.362a439.921,439.921,0,0,0-72.491,19.417c2.755,15.886-1.99,26.584-13.591,31.568-11.762,5.053-22.265,1.137-33.339-13.229l-64.877,37.614c7,15.617,5.292,26.968-4.426,34.8-9.745,7.857-20.722,6.916-35.834-3.835-17.559,17.595-35.294,35.365-52.94,53.047,10.6,12.349,12.1,23.877,5.318,33.89-7.327,10.815-18.064,12.887-35.186,6.616a451.281,451.281,0,0,0-37.5,65.049c12.974,9.4,17.059,19.348,13.063,30.882-4.276,12.346-13.163,16.707-32.368,15.632a443.4,443.4,0,0,0-19.256,72.548c1.083.417,1.591.627,2.109.811,12.674,4.47,19.822,14.532,18.53,26.094-1.385,12.409-9.973,20.648-23.623,21.953-3.993.381-3.916,2.68-3.981,5.287-.371,14.771-.908,29.542-.926,44.314-.011,8.751.829,17.5,1.278,26.125,17.779,2.911,25.966,9.9,27.3,22.923,1.218,11.849-5.544,20.882-21.58,27.4,6.419,24.025,12.891,48.248,19.313,72.287,17.638-2.384,27.981,1.756,32.374,13.356,1.754,4.629,2.018,10.239,1.458,15.234-.914,8.148-6.735,13.36-13.7,17.424a458.256,458.256,0,0,0,37.984,65.407c13.78-6.648,25.038-5.6,32.651,3.839a32.811,32.811,0,0,1,6.092,14.031c1.626,8.478-2.48,15.52-9.222,22.308l53.289,53.186c13.872-10.735,25.341-11.892,35.2-4.315,10.1,7.759,11.915,19.024,4.882,35.128l64.878,37.492c10.916-13.951,20.117-18.095,31.375-13.84,14.967,5.658,18.778,17.4,15.475,33.314l72.609,19.31c1-2.663,1.457-3.864,1.9-5.065,3.775-10.13,12.956-16.7,22.851-16.7A22.353,22.353,0,0,1,1579.923,6032.309Zm57.739-6.269q-5.277-93.563-10.516-187.127c-1.167-20.73-3.178-41.454-3.284-62.188-.069-13.738,2.446-27.5,4.01-41.23,2.18-19.119,4.552-38.213,6.9-57.833-5.062-.7-9.791-1.352-15.252-2.107-1.564,10.514-3.129,20.791-4.616,31.078-3.023,20.9-5.109,41.99-9.307,62.651-2.92,14.364-8.624,28.173-13.243,42.178q-35.8,108.545-71.68,217.061a8.238,8.238,0,0,1-2.329,3.992c1.6-7.99,3.153-15.987,4.81-23.965q25.169-121.273,50.409-242.532a51.622,51.622,0,0,1,2.8-8.5q15.69-39.291,31.465-78.55c.746-1.863,1.392-3.764,2.183-5.915-4.8-2.015-9.222-3.873-14.111-5.928-4.2,9.751-8.35,19.317-12.449,28.9q-12.008,28.084-24,56.173a41.734,41.734,0,0,1-3.4,6.425q-73.359,111.877-146.783,223.711a7.409,7.409,0,0,1-2.986,2.844c.6-1.36,1.128-2.749,1.794-4.072q59.849-118.924,119.751-237.825a51.821,51.821,0,0,1,4.782-7.556q25.511-34.173,51.118-68.275c1.215-1.623,2.38-3.284,3.726-5.146l-12.012-9.262c-1.409,1.638-2.651,2.973-3.775,4.4q-26.713,33.962-53.423,67.929a45.047,45.047,0,0,1-5.3,5.759q-99.022,88.4-198.111,176.721a7.468,7.468,0,0,1-4.024,2.07c1.2-1.48,2.352-3.01,3.62-4.433,57.653-64.65,115.02-129.558,173.231-193.7,11.3-12.456,25.791-22.062,39.01-32.731,13.668-11.029,27.583-21.751,41.746-32.89-3.109-4.1-6-7.924-9.259-12.217-1.761,1.245-3.409,2.354-5,3.543-12.429,9.3-25.2,18.184-37.2,28.018-24.028,19.7-50.844,34.52-78.59,48.235-66.166,32.705-131.927,66.229-197.856,99.414a8.534,8.534,0,0,1-4.8,1.164q15.111-9.949,30.224-19.9,97.786-64.151,195.657-128.173c6.5-4.235,13.992-7.01,21.174-10.112,22.119-9.559,44.312-18.942,66.47-28.411,1.531-.654,3.01-1.432,4.9-2.338l-5.767-13.946c-3.7,1.383-7.322,2.654-10.879,4.078-23.237,9.305-46.168,19.491-69.793,27.68-16.133,5.592-33.134,8.859-49.911,12.392-64.163,13.517-128.393,26.72-192.6,40.035-12.054,2.5-24.114,4.977-36.525,6.521,1.508-.512,3.01-1.037,4.523-1.537,84.759-28,169.453-56.208,254.358-83.762,11.225-3.644,23.514-4.061,35.334-5.806,20.694-3.052,41.409-5.976,62.749-9.045-.581-5.041-1.126-9.754-1.764-15.3-9.94,1.155-19.694,2.275-29.447,3.425-20.793,2.452-41.53,5.756-62.394,7.093-14.467.928-29.118-.657-43.668-1.449-36.232-1.97-72.453-4.144-108.679-6.21q-61.905-3.532-123.811-7.031c-.534-.031-1.058-.24-1.652-1.229,7.628-.511,15.253-1.088,22.886-1.524,71.333-4.084,142.713-7.479,213.98-12.513,31.864-2.25,63.04,1.125,94.375,5.093,12.592,1.594,25.208,2.991,38.269,4.53.688-5.115,1.321-9.839,2.046-15.226-10.425-1.548-20.528-3.083-30.641-4.541-21.093-3.043-42.37-5.163-63.228-9.371-14.181-2.86-27.8-8.542-41.63-13.1q-108.536-35.809-217.046-71.693a9.92,9.92,0,0,1-4.466-2.472c8.293,1.666,16.595,3.284,24.875,5.006,80.112,16.666,160.246,33.227,240.292,50.2,9.031,1.915,17.638,5.99,26.309,9.405,20.682,8.145,41.286,16.495,61.923,24.754,1.894.758,3.807,1.463,6.078,2.333,2-4.666,3.887-9.091,5.962-13.94-1.68-.821-3.287-1.694-4.962-2.409-26.8-11.451-53.673-22.709-80.344-34.442-6.261-2.755-11.917-6.954-17.689-10.738q-105.785-69.347-211.511-138.781a9.959,9.959,0,0,1-3.521-3.467c1.451.665,2.923,1.283,4.346,2,79.12,39.809,158.417,79.273,237.189,119.761,14.451,7.427,26.826,18.928,40.057,28.688,13.677,10.09,27.226,20.348,41.195,30.806,3.164-4.054,6.1-7.812,9.356-11.989-1.638-1.432-3.072-2.808-4.627-4.029-21.617-16.993-43.41-33.77-64.784-51.06-6.776-5.482-12.743-12.064-18.579-18.59q-83.242-93.094-166.295-186.355a11.9,11.9,0,0,1-2.749-4.489,32.584,32.584,0,0,1,3.158,2.214c66.2,59.009,132.559,117.836,198.368,177.275,9.865,8.911,17.221,20.626,25.586,31.164,12.2,15.372,24.272,30.854,36.794,46.792,4.132-3.13,8.042-6.1,12.191-9.242-1.252-1.813-2.249-3.366-3.352-4.838-10.311-13.777-20.307-27.806-31.042-41.244-16.186-20.257-29.216-42.266-40.724-65.5-34.162-68.989-69.107-137.591-103.738-206.346a11.258,11.258,0,0,1-1.515-5.41c1.078,1.556,2.2,3.084,3.232,4.664q72.478,110.444,144.865,220.945c3.138,4.8,5.379,10.234,7.664,15.533,10.351,24.017,20.564,48.093,30.839,72.142.657,1.535,1.421,3.024,2.37,5.027l14.141-5.834c-5.659-14.185-11.166-28.037-16.709-41.874-5.487-13.7-11.922-27.1-16.272-41.148-4.79-15.463-8.013-31.445-11.337-47.323q-23.658-113-46.979-226.071a5.74,5.74,0,0,1,.2-3.406c.563,1.492,1.178,2.966,1.678,4.479,27.961,84.583,56.218,169.071,83.557,253.855,4.472,13.869,4.995,29.027,7.175,43.613,2.73,18.259,5.287,36.543,7.987,55.284,5.235-.642,9.962-1.22,15.323-1.878-1.568-13.246-3.094-26.181-4.629-39.115-2.2-18.564-5.226-37.08-6.335-55.708-.783-13.175.944-26.507,1.691-39.763q3.122-55.466,6.356-110.923,3.482-61.066,6.939-122.134a2.393,2.393,0,0,1,1.355-2.043c.5,7.845,1.057,15.689,1.507,23.537q4.989,86.834,9.937,173.671c1.412,24.837,3.473,49.669,3.821,74.524.189,13.351-2.552,26.75-4.1,40.112-2.214,19.111-4.547,38.206-6.884,57.754,5.112.686,9.849,1.321,15.26,2.049,1.568-10.569,3.127-20.853,4.615-31.147,3.021-20.9,5.107-41.99,9.308-62.651,2.92-14.364,8.639-28.168,13.258-42.175q35.8-108.552,71.687-217.075a7.922,7.922,0,0,1,2.34-3.945c-2.052,10.06-4.072,20.128-6.161,30.182-16.3,78.466-32.413,156.972-49.146,235.345-2.349,11-7.594,21.419-11.765,32-8.078,20.5-16.344,40.917-24.734,61.871l14.231,6.055c6.064-14.122,12.032-28,17.978-41.881,3.9-9.1,7.979-18.133,11.586-27.349,5.205-13.3,12.238-25.514,20.088-37.423q68.073-103.273,135.789-206.781a14.981,14.981,0,0,1,4.218-4.672c-.717,1.582-1.38,3.192-2.16,4.741-39.49,78.444-78.829,156.965-118.687,235.222-5.2,10.209-12.885,19.2-19.744,28.509-12.311,16.716-24.874,33.247-37.318,49.866-1.094,1.461-2.084,3-3.223,4.65l11.9,9.2c1.338-1.552,2.678-2.989,3.889-4.527,16.769-21.319,33.03-43.062,50.475-63.811,9.077-10.8,19.947-20.17,30.507-29.626q87.181-78.062,174.626-155.83a12.177,12.177,0,0,1,5.09-3.02c-.988,1.238-1.917,2.527-2.97,3.708q-87.776,98.448-175.6,196.851a58.5,58.5,0,0,1-7.37,6.861q-33.261,26.244-66.616,52.372c-1.58,1.242-3.092,2.569-4.9,4.075,3.155,4.116,6.072,7.92,9.31,12.147,11.865-8.868,23.525-17.57,35.173-26.289,12.426-9.3,24.712-18.8,37.322-27.854a123.165,123.165,0,0,1,16.45-9.5q116.035-58.534,232.138-116.932c1.114-.561,2.241-1.1,3.361-1.646q.157.436.315.869-41.019,26.925-82.036,53.849c-48.308,31.694-96.55,63.49-145.01,94.953-6.664,4.327-14.318,7.2-21.671,10.379-22.117,9.573-44.313,18.962-66.469,28.441-1.524.652-2.98,1.46-4.689,2.306,1.937,4.636,3.781,9.053,5.856,14.024,4.5-1.789,8.785-3.48,13.06-5.195,22.36-8.963,44.421-18.8,67.176-26.609,16.329-5.6,33.491-8.956,50.446-12.525,64.16-13.511,128.387-26.7,192.589-40.007,12.049-2.5,24.1-4.993,36.442-6.591-4.167,1.447-8.318,2.953-12.506,4.334-80.879,26.691-161.659,53.7-242.745,79.743-14.771,4.744-30.779,5.729-46.267,8.126-18.27,2.832-36.594,5.313-55.542,8.039.568,5.015,1.1,9.734,1.73,15.278,9.913-1.127,19.659-2.2,29.4-3.351,21.534-2.553,43.007-5.967,64.614-7.436,13.9-.946,28,.8,42,1.584,36.043,2.014,72.077,4.192,108.117,6.249q62.185,3.549,124.375,7.018a2.815,2.815,0,0,1,2.378,1.335c-6.973.455-13.943.964-20.919,1.358q-63.308,3.571-126.618,7.1c-41.086,2.31-82.15,5.174-123.265,6.651-13.865.5-27.869-2.378-41.783-3.944-19.279-2.17-38.534-4.561-58.174-6.9-.677,5.236-1.289,9.973-1.978,15.3,13.452,1.956,26.534,3.876,39.621,5.753,17.024,2.439,34.291,3.795,51.017,7.559,16.509,3.715,32.539,9.652,48.668,14.955q105.663,34.736,211.259,69.677a20.04,20.04,0,0,1,6.576,3.257c-11.966-2.449-23.939-4.869-35.9-7.349q-115.507-23.948-230.993-48c-4.7-.983-9.2-3.067-13.7-4.864-26.183-10.445-52.338-20.958-78.979-31.639-2,4.655-3.893,9.043-6.033,14.014,1.784.868,3.512,1.8,5.309,2.566,18.373,7.876,36.466,16.516,55.2,23.4,27.784,10.2,51.269,27.507,75.625,43.433q90.144,58.94,180.122,118.125a10.573,10.573,0,0,1,3.378,3.15c-1.3-.58-2.621-1.111-3.892-1.749-79.613-40.07-159.328-79.941-238.712-120.462-11.351-5.793-21.191-14.6-31.555-22.256-16.681-12.32-33.214-24.838-50.214-37.574-3.153,4.032-6.087,7.785-9.423,12.052,1.637,1.383,3.1,2.7,4.649,3.918,18.379,14.455,36.4,29.4,55.267,43.193,17.473,12.78,30.7,29.488,44.894,45.33q75.272,84.029,150.234,168.339a7.527,7.527,0,0,1,2.029,3.69,31.153,31.153,0,0,1-3.106-2.173c-66.332-59.139-132.825-118.1-198.774-177.661-9.728-8.785-16.943-20.375-25.191-30.769-11.279-14.214-22.426-28.529-33.65-42.787-1.008-1.281-2.152-2.455-3.438-3.913-4.057,3.12-7.851,6.039-11.9,9.157,1.228,1.768,2.23,3.312,3.332,4.782q25.22,33.688,50.425,67.389a75.034,75.034,0,0,1,6.775,10.919q59.323,117.62,118.516,235.306a9.413,9.413,0,0,1,1.314,4.9c-1.075-1.546-2.186-3.067-3.22-4.641q-72.63-110.681-145.222-221.393a51.77,51.77,0,0,1-4.23-7.876q-16.936-39.385-33.753-78.824c-.8-1.863-1.686-3.687-2.577-5.625l-14.1,5.939c5.689,14.264,11.26,28.278,16.866,42.278,4.235,10.576,8.17,21.29,12.846,31.667,8.954,19.873,11.32,41.375,15.75,62.325,15.461,73.1,30.464,146.308,45.633,219.474a6.584,6.584,0,0,1-.154,4.014c-1.121-3.218-2.289-6.421-3.357-9.657-27.152-82.3-54.612-164.5-81.133-247-4.632-14.408-5.45-30.067-7.764-45.19-2.79-18.256-5.3-36.554-8-55.356l-15.3,1.855c1.515,13.009,2.98,25.752,4.487,38.491,2.2,18.565,5.239,37.077,6.358,55.706.8,13.36-.845,26.881-1.6,40.321q-3.094,55.466-6.352,110.923-3.482,61.066-6.931,122.134a2.531,2.531,0,0,1-1.34,2.149C1638.6,6040.184,1638.062,6033.115,1637.662,6026.041Z" transform="translate(-1092.279 -5034.499)"/>
</svg>
